<svg height="464pt" viewBox="0 0 464 464" width="464pt" xmlns="http://www.w3.org/2000/svg"><path d="m432 464h-400c-17.671875 0-32-14.328125-32-32v-432h336l96 96zm0 0" fill="#cfdfe8"/><path d="m432 96h-96v-96zm0 0" fill="#aabece"/><path d="m352 16h80v80zm0 0" fill="#7d8d9c"/><path d="m432 40h32v392c0 17.671875-14.328125 32-32 32zm0 0" fill="#5a6470"/><path d="m96 104h-29.542969l-24-64h-2.457031v64h-16v-80h29.542969l24 64h2.457031v-64h16zm0 0" fill="#a8222f"/><path d="m240 104h-16c-3.273438.003906-6.214844-1.988281-7.433594-5.023438l-8.566406-21.441406-8.566406 21.441406c-1.21875 3.035157-4.160156 5.027344-7.433594 5.023438h-16c-4.417969 0-8-3.582031-8-8v-72h16v64h2.585938l13.980468-34.976562c1.214844-3.042969 4.160156-5.039063 7.433594-5.039063s6.21875 1.996094 7.433594 5.039063l13.980468 34.976562h2.585938v-64h16v72c0 4.417969-3.582031 8-8 8zm0 0" fill="#a8222f"/><path d="m152 40v-16h-40v80h40v-16h-24v-16h24v-16h-24v-16zm0 0" fill="#a8222f"/><path d="m304 104h-40v-16h32v-16h-24c-4.417969 0-8-3.582031-8-8v-32c0-4.417969 3.582031-8 8-8h40v16h-32v16h24c4.417969 0 8 3.582031 8 8v32c0 4.417969-3.582031 8-8 8zm0 0" fill="#a8222f"/><path d="m24 120h408v16h-408zm0 0" fill="#d9176c"/><path d="m240 160h160v128h-160zm0 0" fill="#fff69a"/><path d="m32 304h176v128h-176zm0 0" fill="#fff69a"/><g fill="#5a6470"><path d="m24 160h176v16h-176zm0 0"/><path d="m24 192h48v16h-48zm0 0"/><path d="m88 192h16v16h-16zm0 0"/><path d="m120 192h24v16h-24zm0 0"/><path d="m160 192h40v16h-40zm0 0"/><path d="m24 224h176v16h-176zm0 0"/><path d="m24 256h160v16h-160zm0 0"/><path d="m248 320h160v16h-160zm0 0"/><path d="m240 352h160v16h-160zm0 0"/><path d="m232 384h176v16h-176zm0 0"/><path d="m264 416h144v16h-144zm0 0"/></g></svg>